<?xml version="1.0" encoding="UTF-8"?>
<svg version="1.1" xmlns="http://www.w3.org/2000/svg" width="1024" height="1024">
<path d="M0 0 C337.92 0 675.84 0 1024 0 C1024 337.92 1024 675.84 1024 1024 C686.08 1024 348.16 1024 0 1024 C0 686.08 0 348.16 0 0 Z " fill="#FDFDFD" transform="translate(0,0)"/>
<path d="M0 0 C2.39528159 1.10146043 4.71049035 2.23795729 7.0390625 3.46484375 C7.71296021 3.81364594 8.38685791 4.16244812 9.08117676 4.52182007 C11.2656228 5.65439245 13.44531849 6.79578904 15.625 7.9375 C17.13499244 8.72275234 18.64524762 9.50749965 20.15576172 10.29174805 C24.44159467 12.51941901 28.72165975 14.75797985 33 17 C34.00160156 17.52432617 35.00320313 18.04865234 36.03515625 18.58886719 C39.85292366 20.58955217 43.66651706 22.59793398 47.4765625 24.61328125 C52.80633678 27.43065187 58.15354364 30.214455 63.5 33 C70.50776049 36.65207012 77.5095094 40.31498104 84.5 44 C87.66623092 45.66749554 90.83292816 47.33410219 94 49 C95.18577637 49.62382568 95.18577637 49.62382568 96.39550781 50.26025391 C111.72164991 58.31333414 127.13158562 66.20056945 142.54492188 74.08496094 C152.58378309 79.22092664 162.6137543 84.37289446 172.625 89.5625 C183.90029987 95.40712518 195.1969107 101.20932368 206.5 107 C224.87827796 116.41627776 243.22703705 125.88785496 261.5546875 135.40234375 C263.74476631 136.53911136 265.93487055 137.67582997 268.125 138.8125 C269.20555664 139.37340332 270.28611328 139.93430664 271.39941406 140.51220703 C277.86130202 143.86340714 284.32989281 147.20116406 290.8046875 150.52734375 C291.56605011 150.91851883 292.32741272 151.30969391 293.11184692 151.71272278 C296.82656019 153.62094374 300.54191943 155.52789118 304.25830078 157.43286133 C311.87248894 161.33968352 319.46466232 165.28545788 327.03515625 169.27636719 C327.9027356 169.73337006 328.77031494 170.19037292 329.66418457 170.66122437 C331.77628519 171.77384231 333.88822076 172.88677222 336 174 C336.1830004 222.96153578 336.32402103 271.92303708 336.40852264 320.88484741 C336.41852862 326.6615948 336.42888317 332.43834151 336.43945312 338.21508789 C336.44155161 339.36516303 336.44365009 340.51523816 336.44581217 341.70016406 C336.48064899 360.33665332 336.54373998 378.97294573 336.61722237 397.6093181 C336.69196167 416.72348972 336.73645479 435.83755804 336.75270796 454.95186979 C336.76370017 466.75220985 336.79845141 478.55199355 336.86333174 490.3521624 C336.90552966 498.43745804 336.91842129 506.5224649 336.90801102 514.60786273 C336.9028727 519.27710348 336.91089988 523.94537025 336.9536438 528.61443901 C336.99246979 532.88661293 336.99461398 537.15715471 336.96719116 541.42940251 C336.96380033 542.97729325 336.97404295 544.5252843 336.99906546 546.07297649 C337.1756311 557.66509803 337.1756311 557.66509803 334.24754047 560.98987734 C332.19254748 562.30083141 330.28862438 563.18123773 328 564 C327.12811035 564.49846436 326.2562207 564.99692871 325.35791016 565.51049805 C324.59269043 565.92340088 323.8274707 566.33630371 323.0390625 566.76171875 C322.16475586 567.23561035 321.29044922 567.70950195 320.38964844 568.19775391 C319.47731445 568.68937012 318.56498047 569.18098633 317.625 569.6875 C315.66375818 570.75074093 313.70282483 571.81455104 311.7421875 572.87890625 C310.2876416 573.6680542 310.2876416 573.6680542 308.80371094 574.47314453 C304.77329044 576.66804612 300.75947682 578.8921216 296.75 581.125 C295.6508728 581.73698242 295.6508728 581.73698242 294.52954102 582.36132812 C293.06822669 583.17538034 291.60704338 583.98966781 290.14599609 584.80419922 C286.62015473 586.76888307 283.0911804 588.72792134 279.5625 590.6875 C278.0624843 591.52080507 276.56248498 592.35413962 275.0625 593.1875 C271.3125 595.27083333 267.5625 597.35416667 263.8125 599.4375 C262.71558838 600.0469043 261.61867676 600.65630859 260.48852539 601.28417969 C258.1856589 602.56353173 255.88276127 603.84282771 253.57983398 605.12207031 C247.81420391 608.32484754 242.04908344 611.52853359 236.28515625 614.734375 C217.81466085 625.00509192 217.81466085 625.00509192 208.6640625 630.04296875 C208.05213547 630.37989243 207.44020844 630.7168161 206.80973816 631.06394958 C205.57334483 631.74467126 204.33695058 632.42539127 203.10055542 633.10610962 C202.48987213 633.44234344 201.87918884 633.77857727 201.25 634.125 C200.64116974 634.46018646 200.03233948 634.79537292 199.40505981 635.14071655 C190.32185639 640.14355757 181.28120109 645.2176953 172.2644043 650.33935547 C164.8101542 654.56450579 157.29854847 658.67791425 149.76904297 662.76708984 C142.58019242 666.67382082 135.44295768 670.6643225 128.32080078 674.69091797 C123.42828664 677.45061298 118.52602375 680.19295598 113.625 682.9375 C112.54404053 683.54303711 111.46308105 684.14857422 110.34936523 684.77246094 C104.15803429 688.23874577 97.95822594 691.68909348 91.75 695.125 C85.52962426 698.56893509 79.35228907 702.08265165 73.1875 705.625 C64.837576 710.41708964 56.43271361 715.10556744 48 719.75 C47.39633606 720.08255798 46.79267212 720.41511597 46.17071533 720.75775146 C39.76289006 724.28679441 33.35079406 727.80803213 26.93667603 731.32562256 C24.28274336 732.78173855 21.62993438 734.23989401 18.97729492 735.69836426 C17.10774411 736.72515122 15.23652625 737.7488515 13.36523438 738.77246094 C12.22505859 739.39926758 11.08488281 740.02607422 9.91015625 740.671875 C8.91121338 741.2194043 7.91227051 741.76693359 6.88305664 742.33105469 C3.89237755 743.99542006 3.89237755 743.99542006 0.88061523 746.27050781 C-2 748 -2 748 -4.01342773 747.94189453 C-6.66021426 746.68697227 -9.22523052 745.35624026 -11.78515625 743.9296875 C-12.63186638 743.46042091 -12.63186638 743.46042091 -13.49568176 742.98167419 C-15.35376418 741.9505014 -17.20811419 740.91280352 -19.0625 739.875 C-20.36646656 739.14956536 -21.67066927 738.42455506 -22.97509766 737.69995117 C-25.66492394 736.20488262 -28.35328831 734.70723322 -31.04052734 733.20751953 C-34.72742632 731.15056841 -38.41956676 729.10328226 -42.11328125 727.05859375 C-53.58788117 720.70410127 -65.03481819 714.30318939 -76.44775391 707.83862305 C-99.14913908 694.98156587 -121.93947704 682.27752111 -144.80078125 669.70703125 C-146.10970056 668.98681647 -147.41861983 668.26660163 -148.72753906 667.54638672 C-151.21133313 666.17986944 -153.69653133 664.8159557 -156.18261719 663.45361328 C-159.46312936 661.6497499 -162.73388621 659.82978292 -166 658 C-167.0091748 657.44199707 -168.01834961 656.88399414 -169.05810547 656.30908203 C-169.9760791 655.78556152 -170.89405273 655.26204102 -171.83984375 654.72265625 C-172.64671631 654.26769775 -173.45358887 653.81273926 -174.28491211 653.34399414 C-174.85089111 652.90047607 -175.41687012 652.45695801 -176 652 C-176 651.01 -176 650.02 -176 649 C-174.71875244 648.32179199 -174.71875244 648.32179199 -173.41162109 647.62988281 C-157.11138614 638.9988064 -140.84055779 630.32301796 -124.66601562 621.45800781 C-119.86777798 618.83391668 -115.05901824 616.22926714 -110.25 613.625 C-109.25822754 613.08786377 -108.26645508 612.55072754 -107.24462891 611.99731445 C-99.79456441 607.96531029 -92.33553515 603.9500879 -84.875 599.9375 C-75.96140592 595.14299687 -67.06435991 590.31953507 -58.18261719 585.46630859 C-51.50426783 581.81774965 -44.8170753 578.18581864 -38.125 574.5625 C-37.12782959 574.02230225 -36.13065918 573.48210449 -35.10327148 572.92553711 C-30.05770537 570.19311519 -25.00953522 567.46566675 -19.95703125 564.74609375 C-8.87549943 558.77414507 2.14179223 552.70693247 13.08081055 546.47729492 C19.2817522 542.94998907 25.52672248 539.5390922 31.8671875 536.26953125 C34.13523807 535.17938419 34.13523807 535.17938419 35 533 C35.09703195 531.42998994 35.1309832 529.85589455 35.13422108 528.28289223 C35.14090784 526.78101748 35.14090784 526.78101748 35.14772969 525.24880183 C35.14754533 524.14065383 35.14736097 523.03250583 35.14717102 521.89077759 C35.15084771 520.71991147 35.1545244 519.54904536 35.1583125 518.34269845 C35.16745083 515.08268161 35.17205154 511.82269436 35.17470181 508.56266689 C35.17860063 505.05065564 35.18817916 501.53865903 35.19691467 498.0266571 C35.21668967 489.54093662 35.22674599 481.05521491 35.23564246 472.56947714 C35.24002312 468.57623851 35.24539046 464.58300122 35.25063133 460.58976364 C35.26764362 447.32068723 35.28213916 434.05161166 35.28938007 420.78252602 C35.29129005 417.33809025 35.29321037 413.89365449 35.29516602 410.44921875 C35.29564976 409.59309256 35.2961335 408.73696636 35.2966319 407.85489695 C35.30493732 393.9772861 35.33028284 380.09976131 35.36274669 366.22218807 C35.39578358 351.98394745 35.41382572 337.74575061 35.41702431 323.50747144 C35.4191924 315.50926654 35.42798465 307.51118718 35.45348549 299.51301956 C35.47514642 292.70338756 35.48326571 285.89391158 35.47351871 279.08424903 C35.46896069 275.60826023 35.47094648 272.13259365 35.49028015 268.65664864 C35.50784198 264.89188632 35.50096976 261.12795097 35.48774719 257.3631897 C35.49871644 256.25950314 35.50968568 255.15581659 35.52098733 254.01868498 C35.51240644 253.01221966 35.50382555 252.00575433 35.49498463 250.96879005 C35.49644984 249.66493778 35.49644984 249.66493778 35.49794465 248.33474505 C34.83191418 245.21188521 33.40716845 244.02705638 31 242 C28.78427528 240.5921895 28.78427528 240.5921895 26.3515625 239.40625 C25.44019531 238.93960938 24.52882813 238.47296875 23.58984375 237.9921875 C22.61144531 237.49976563 21.63304687 237.00734375 20.625 236.5 C18.53292355 235.42889907 16.44179989 234.3559354 14.3515625 233.28125 C13.28969727 232.73597656 12.22783203 232.19070313 11.13378906 231.62890625 C6.38206383 229.15901604 1.69040313 226.58393466 -3 224 C-10.45239391 219.90472067 -17.95015528 215.91266074 -25.5 212 C-32.81743064 208.20632078 -40.08881923 204.34426385 -47.3125 200.375 C-69.36733692 188.26988127 -91.68490999 176.64556422 -114.03125 165.08984375 C-127.60855837 158.06732 -141.09628406 150.88233669 -154.56341553 143.65130615 C-165.43540183 137.81576118 -176.36218871 132.08985003 -187.31152344 126.40087891 C-192.57254967 123.65952688 -197.81863227 120.88972209 -203.06469727 118.11987305 C-204.1522229 117.54619995 -204.1522229 117.54619995 -205.26171875 116.9609375 C-206.20470825 116.46279541 -206.20470825 116.46279541 -207.16674805 115.95458984 C-209.10053087 114.94765272 -211.04743431 113.96994072 -213 113 C-211.69441755 109.08325266 -210.40325323 108.88876073 -206.76953125 107.06640625 C-205.66794678 106.50630859 -204.5663623 105.94621094 -203.43139648 105.36914062 C-202.84204315 105.07499268 -202.25268982 104.78084473 -201.64547729 104.4777832 C-198.53213507 102.92315956 -195.43540883 101.33594977 -192.3359375 99.75390625 C-191.70902512 99.43507477 -191.08211273 99.11624329 -190.436203 98.78775024 C-184.88173303 95.95750639 -179.39867362 93.00631879 -173.9375 90 C-172.15242622 89.01938111 -170.36726884 88.03891438 -168.58203125 87.05859375 C-167.68049316 86.56343262 -166.77895508 86.06827148 -165.85009766 85.55810547 C-160.62244051 82.70022403 -155.37286116 79.88305587 -150.125 77.0625 C-141.74255991 72.55529365 -133.36637137 68.03696684 -125 63.5 C-116.63362781 58.96303272 -108.25732135 54.44492807 -99.875 49.9375 C-91.94369827 45.67224559 -84.02538103 41.38474672 -76.125 37.0625 C-64.95756682 30.95594821 -53.73761974 24.9484245 -42.51272583 18.94839478 C-38.05076419 16.5630514 -33.5913123 14.17305691 -29.1328125 11.78125 C-27.84196455 11.0889394 -26.55111175 10.39663786 -25.26025391 9.7043457 C-23.39559156 8.70431121 -21.53100289 7.70414095 -19.66668701 6.70346069 C-17.95515114 5.78486475 -16.24320927 4.86702537 -14.53125 3.94921875 C-13.55736328 3.42674561 -12.58347656 2.90427246 -11.58007812 2.3659668 C-10.72865234 1.91519775 -9.87722656 1.46442871 -9 1 C-8.32904297 0.58854736 -7.65808594 0.17709473 -6.96679688 -0.24682617 C-4.2074993 -1.3034837 -2.81642086 -0.88112204 0 0 Z " fill="#FDFDFD" transform="translate(515,130)"/>
<path d="M0 0 C3.66794634 1.49590919 7.09662383 3.33797409 10.5625 5.25 C12.08858887 6.06863525 12.08858887 6.06863525 13.64550781 6.90380859 C16.77272797 8.58646791 19.88797984 10.28941606 23 12 C23.87575684 12.48049805 24.75151367 12.96099609 25.65380859 13.45605469 C26.48348145 13.91141602 27.3131543 14.36677734 28.16796875 14.8359375 C29.86197736 15.76562829 31.5559878 16.69531575 33.25 17.625 C34.1167334 18.10211426 34.9834668 18.57922852 35.87646484 19.07080078 C47.00309686 25.15814778 58.31649376 30.88697335 69.60427856 36.66760254 C70.34201508 37.0454187 71.07975159 37.42323486 71.83984375 37.8125 C72.565737 38.18419312 73.29163025 38.55588623 74.03952026 38.93884277 C79.29512789 41.63239379 84.53201969 44.35917543 89.75 47.125 C99.21827215 52.14222406 108.74698888 57.04205898 118.27636719 61.94189453 C125.31564304 65.56438107 132.33447522 69.22287839 139.3359375 72.91796875 C148.56368613 77.78581247 157.8366192 82.56160985 167.125 87.3125 C168.80620477 88.17348162 170.48735571 89.03456837 172.16845703 89.89575195 C176.55949656 92.14486064 180.95115488 94.392758 185.34301758 96.64025879 C193.18761736 100.65482265 201.03137941 104.67102341 208.875 108.6875 C210.15812073 109.34452911 210.15812073 109.34452911 211.46716309 110.01483154 C235.10938634 122.12201441 258.72197273 134.28566739 282.296875 146.5234375 C287.01311836 148.97101963 291.7320932 151.41323574 296.453125 153.8515625 C298.96876662 155.1510095 301.48439305 156.4504859 304 157.75 C304.61382538 158.06705902 305.22765076 158.38411804 305.8600769 158.71078491 C314.11577228 162.97625721 322.35496171 167.27110204 330.56054688 171.63232422 C334.21408577 173.56640613 337.88376613 175.44618306 341.60546875 177.24609375 C342.34563232 177.60582275 343.0857959 177.96555176 343.84838867 178.33618164 C345.23339748 179.00487703 346.62262257 179.6649442 348.0168457 180.31420898 C351.66999312 182.077185 353.97375773 183.47148371 356 187 C356.37719816 190.0879125 356.37719816 190.0879125 356.38031673 193.80325985 C356.38497665 194.49016859 356.38963657 195.17707732 356.3944377 195.88480148 C356.40643442 198.19763953 356.39697465 200.50989519 356.38768005 202.82273865 C356.39185094 204.4931752 356.3973271 206.16360893 356.40399987 207.83403736 C356.41850546 212.43304042 356.41419385 217.03186505 356.40683305 221.63087809 C356.40211629 226.58734058 356.41459797 231.54376364 356.42485046 236.50021362 C356.4420731 246.213644 356.44287131 255.92700979 356.43763756 265.64045148 C356.43360111 273.53315072 356.43503316 281.42583081 356.44038582 289.31852913 C356.44113424 290.44056486 356.44188266 291.56260058 356.44265376 292.7186374 C356.44418519 294.99782761 356.44572354 297.27701782 356.44726873 299.55620802 C356.46100628 320.94456399 356.45554725 342.33288342 356.44408352 363.72123856 C356.43414954 383.30151816 356.44709246 402.88170328 356.47101771 422.4619683 C356.49538222 442.55261939 356.50502313 462.64322644 356.49836498 482.73389202 C356.4948669 494.01904329 356.49714359 505.30412188 356.51461601 516.58926201 C356.5293049 526.19598725 356.53001692 535.80258862 356.5125451 545.40931135 C356.50400539 550.31320645 356.50195771 555.21687997 356.51719666 560.12076378 C356.53096563 564.60705353 356.52638175 569.09293025 356.50695742 573.57919563 C356.50317302 575.20499421 356.50618901 576.83082527 356.51656907 578.45659512 C356.52965147 580.66186556 356.5182362 582.86569183 356.50057125 585.07089901 C356.50046391 586.29712599 356.50035658 587.52335297 356.50024599 588.78673834 C355.9017095 592.6313556 354.69921038 594.24940115 352 597 C349.34057617 598.73828125 349.34057617 598.73828125 346.29296875 600.3125 C345.16068848 600.90635498 344.0284082 601.50020996 342.86181641 602.11206055 C342.26314758 602.41961273 341.66447876 602.72716492 341.04766846 603.04403687 C337.86487967 604.67971063 334.70161117 606.35252415 331.53515625 608.01953125 C330.89479431 608.35531693 330.25443237 608.6911026 329.59466553 609.0370636 C323.70265303 612.13402092 317.90414266 615.3849173 312.125 618.6875 C304.83047275 622.84526072 297.50557376 626.93436472 290.125 630.9375 C281.26206619 635.74701614 272.45280041 640.64643699 263.65966797 645.58227539 C246.04401016 655.46966047 228.37028698 665.25212439 210.6791687 675.00366211 C198.4122694 681.76564235 186.16621112 688.56463068 173.92529297 695.37353516 C171.3481211 696.80644444 168.77010019 698.23780105 166.19140625 699.66796875 C156.52584459 705.02924258 146.87957136 710.42444171 137.23779297 715.82836914 C131.16512248 719.23089557 125.08759277 722.6242489 119 726 C112.00984147 729.87630973 105.03458154 733.77877813 98.0625 737.6875 C79.26868374 748.2199515 60.42934765 758.66932873 41.5585022 769.06298828 C31.60082601 774.54852936 21.67256609 780.08451683 11.76513672 785.66040039 C10.79979004 786.20301514 9.83444336 786.74562988 8.83984375 787.3046875 C7.57708618 788.0160083 7.57708618 788.0160083 6.28881836 788.74169922 C1.40045634 791.42912512 -2.30928704 793.1340064 -8 792 C-12.38921257 790.11519801 -16.44825015 787.73044182 -20.5625 785.3125 C-21.7659748 784.62203544 -22.97041849 783.93325714 -24.17578125 783.24609375 C-26.62505693 781.84669989 -29.06889653 780.43850258 -31.50830078 779.02197266 C-36.48040713 776.13688127 -41.49186621 773.32191374 -46.5 770.5 C-48.3750164 769.43752895 -50.25001618 768.37502855 -52.125 767.3125 C-59.70721667 763.02689927 -67.32830729 758.81146705 -74.9465332 754.59033203 C-82.21648297 750.55822413 -89.45986007 746.48237841 -96.6875 742.375 C-104.44971886 737.96626966 -112.2642572 733.66793336 -120.125 729.4375 C-128.39520181 724.98630244 -136.58279571 720.41782417 -144.71972656 715.72802734 C-152.22220972 711.41585244 -159.79193516 707.23050581 -167.375 703.0625 C-176.15319782 698.23661993 -184.91261307 693.38164361 -193.625 688.4375 C-210.04322169 679.12385904 -226.54011355 669.95109098 -243.125 660.9375 C-257.09246047 653.3446567 -270.96317791 645.57611698 -284.78125 637.71484375 C-295.86827507 631.41064421 -307.02478386 625.26618705 -318.27099609 619.25024414 C-328.45009091 613.79132487 -338.51886295 608.14406896 -348.53173828 602.38623047 C-350.18467629 601.45790386 -351.85567719 600.56106899 -353.54248047 599.69580078 C-354.74155029 599.07487549 -354.74155029 599.07487549 -355.96484375 598.44140625 C-356.67116943 598.08892822 -357.37749512 597.7364502 -358.10522461 597.37329102 C-360.63719317 595.53817657 -361.61042881 593.80641883 -363 591 C-363.37719816 587.84559727 -363.37719816 587.84559727 -363.38031673 584.21424866 C-363.38497665 583.54138144 -363.38963657 582.86851422 -363.3944377 582.17525709 C-363.40640705 579.91620059 -363.39698521 577.65774337 -363.38768005 575.39868164 C-363.39185213 573.76450515 -363.39732895 572.13033156 -363.40399987 570.49616337 C-363.41848968 566.00203242 -363.41419876 561.50808431 -363.40683305 557.0139432 C-363.40211246 552.16861008 -363.41460133 547.32331716 -363.42485046 542.47799683 C-363.4420651 532.98461646 -363.44287302 523.49130219 -363.43763756 513.99791026 C-363.43359989 506.28401057 -363.43503462 498.57013045 -363.44038582 490.85623169 C-363.44113424 489.7593097 -363.44188266 488.66238772 -363.44265376 487.53222567 C-363.4441852 485.30400999 -363.44572355 483.07579431 -363.44726873 480.84757864 C-363.4610032 459.94231058 -363.45554924 439.03707991 -363.44408352 418.13181269 C-363.43414823 398.9945529 -363.44709526 379.85738975 -363.47101771 360.72014487 C-363.49538252 341.08146685 -363.50502315 321.44283388 -363.49836498 301.80414104 C-363.49486718 290.77386858 -363.49714186 279.74367049 -363.51461601 268.71340942 C-363.5293052 259.32446437 -363.53001644 249.93564606 -363.5125451 240.54670358 C-363.50400595 235.75418938 -363.5019564 230.9619019 -363.51719666 226.16939926 C-363.53096711 221.7849193 -363.52637987 217.40086193 -363.50695742 213.01640689 C-363.5031735 211.4276501 -363.50618766 209.83886006 -363.51656907 208.25013268 C-363.52965475 206.09482505 -363.51823353 203.94099433 -363.50057125 201.78575134 C-363.50046391 200.5874063 -363.50035658 199.38906126 -363.50024599 198.15440273 C-362.89740446 194.35306295 -361.66174332 192.72875281 -359 190 C-356.45166016 188.30932617 -356.45166016 188.30932617 -353.5390625 186.79296875 C-351.89490356 185.92551025 -351.89490356 185.92551025 -350.2175293 185.04052734 C-349.02004698 184.42279836 -347.82253641 183.80512412 -346.625 183.1875 C-345.37543045 182.53195643 -344.1264999 181.87519354 -342.87817383 181.21728516 C-340.25599674 179.83697543 -337.63094656 178.46237979 -335.00341797 177.09228516 C-329.18029328 174.05323302 -323.37979041 170.97171538 -317.58230591 167.88409424 C-316.31506644 167.20921559 -315.04754737 166.53486169 -313.77975464 165.86102295 C-304.57003584 160.96396148 -295.46545369 155.90360875 -286.41113281 150.72436523 C-278.46774045 146.20598335 -270.3852929 141.98633995 -262.26220703 137.80175781 C-253.65512556 133.36258305 -245.14963332 128.75676666 -236.66015625 124.09765625 C-230.4593013 120.69598816 -224.23034135 117.34727067 -218 114 C-209.98586774 109.69220548 -201.9831614 105.36492548 -194 101 C-180.59146183 93.67048761 -167.12775101 86.44381458 -153.66796875 79.20898438 C-142.47086365 73.18938909 -131.27793758 67.16362003 -120.125 61.0625 C-111.17445941 56.16618259 -102.18652186 51.34128083 -93.18902588 46.53201294 C-85.44017456 42.38938299 -77.70729877 38.2195067 -70 34 C-60.55523776 28.82995009 -51.07449805 23.72816968 -41.56958008 18.66967773 C-35.72359874 15.55485676 -29.90392679 12.40174351 -24.12890625 9.15625 C-22.49961182 8.24830688 -22.49961182 8.24830688 -20.83740234 7.32202148 C-18.79310531 6.18008622 -16.75520771 5.02658944 -14.72509766 3.85961914 C-5.77304501 -1.11715524 -5.77304501 -1.11715524 0 0 Z M-9.98828125 24.421875 C-10.99238037 24.94612061 -11.99647949 25.47036621 -13.03100586 26.01049805 C-14.65534546 26.87155151 -14.65534546 26.87155151 -16.3125 27.75 C-17.44115479 28.34272705 -18.56980957 28.9354541 -19.73266602 29.54614258 C-27.54509028 33.66264914 -35.30763114 37.86633628 -43.04516602 42.12158203 C-51.72962674 46.88549678 -60.48897124 51.50408541 -69.25 56.125 C-78.62847991 61.07290732 -87.98866908 66.03557326 -97.22851562 71.23925781 C-104.34246398 75.22943151 -111.5481642 79.04675619 -118.75 82.875 C-127.56555098 87.56138183 -136.36919255 92.26499936 -145.125 97.0625 C-153.39034737 101.59126671 -161.68814168 106.05733649 -170 110.5 C-178.78781064 115.19811317 -187.56391212 119.91662727 -196.3125 124.6875 C-197.19486328 125.16832031 -198.07722656 125.64914063 -198.98632812 126.14453125 C-203.6872667 128.71335014 -208.35845464 131.32531731 -213 134 C-213 134.66 -213 135.32 -213 136 C-205.5931273 140.00141399 -198.17062664 143.95313447 -190.625 147.6875 C-175.75672079 155.06395292 -161.03511786 162.73734975 -146.5 170.75 C-137.19023248 175.87882768 -127.76781802 180.7719075 -118.3125 185.625 C-117.59220612 185.99473938 -116.87191223 186.36447876 -116.12979126 186.74542236 C-113.30598101 188.194678 -110.48205577 189.64370924 -107.65794373 191.09237671 C-91.20691983 199.53543293 -74.92888251 208.30548811 -58.63623047 217.04882812 C-52.8003306 220.18058118 -46.96279034 223.30927263 -41.125 226.4375 C-39.4078479 227.35789062 -39.4078479 227.35789062 -37.65600586 228.296875 C-31.55598846 231.56496943 -25.45257252 234.82651752 -19.34375 238.078125 C-5.29597128 245.556185 8.74619176 253.04257369 22.68212891 260.72802734 C24.30417905 261.61815598 25.93197987 262.4978487 27.56396484 263.36962891 C28.38203613 263.81097168 29.20010742 264.25231445 30.04296875 264.70703125 C30.77926514 265.09995361 31.51556152 265.49287598 32.27416992 265.89770508 C34 267 34 267 35 269 C35.09703195 270.57001006 35.1309832 272.14410545 35.13422108 273.71710777 C35.13867892 274.7183576 35.14313676 275.71960744 35.14772969 276.75119817 C35.14754533 277.85934617 35.14736097 278.96749417 35.14717102 280.10922241 C35.15084771 281.28008853 35.1545244 282.45095464 35.1583125 283.65730155 C35.16745083 286.91731839 35.17205154 290.17730564 35.17470181 293.43733311 C35.17860063 296.94934436 35.18817916 300.46134097 35.19691467 303.9733429 C35.21668967 312.45906338 35.22674599 320.94478509 35.23564246 329.43052286 C35.24002312 333.42376149 35.24539046 337.41699878 35.25063133 341.41023636 C35.26764362 354.67931277 35.28213916 367.94838834 35.28938007 381.21747398 C35.29129005 384.66190975 35.29321037 388.10634551 35.29516602 391.55078125 C35.29564976 392.40690744 35.2961335 393.26303364 35.2966319 394.14510305 C35.30493732 408.0227139 35.33028284 421.90023869 35.36274669 435.77781193 C35.39578358 450.01605255 35.41382572 464.25424939 35.41702431 478.49252856 C35.4191924 486.49073346 35.42798465 494.48881282 35.45348549 502.48698044 C35.47514642 509.29661244 35.48326571 516.10608842 35.47351871 522.91575097 C35.46896069 526.39173977 35.47094648 529.86740635 35.49028015 533.34335136 C35.50784198 537.10811368 35.50096976 540.87204903 35.48774719 544.6368103 C35.49871644 545.74049686 35.50968568 546.84418341 35.52098733 547.98131502 C35.51240644 548.98778034 35.50382555 549.99424567 35.49498463 551.03120995 C35.49596144 551.9004448 35.49693824 552.76967965 35.49794465 553.66525495 C34.83349828 556.78068728 33.39551079 557.97391471 31 560 C29.16674805 561.16577148 29.16674805 561.16577148 27.26171875 562.12109375 C26.53645996 562.49210205 25.81120117 562.86311035 25.06396484 563.24536133 C24.27973145 563.63876709 23.49549805 564.03217285 22.6875 564.4375 C15.31048764 568.22301582 8.06830979 572.1891435 0.875 576.3125 C-8.21429244 581.50310132 -17.42651961 586.40159772 -26.73071289 591.19458008 C-36.30697354 596.1340241 -45.75987081 601.28169889 -55.20361328 606.46875 C-60.12585148 609.16407722 -65.06361508 611.8306985 -70 614.5 C-77.67442905 618.65253868 -85.34172566 622.81774355 -93 627 C-101.67062934 631.73511314 -110.35448449 636.44537124 -119.04345703 641.14672852 C-125.66188812 644.7292653 -132.27105014 648.32835063 -138.875 651.9375 C-151.21914467 658.68226232 -163.60861041 665.3425604 -176 672 C-176 672.99 -176 673.98 -176 675 C-163.4411936 682.14568786 -150.84414559 689.21689813 -138.1875 696.1875 C-137.56497345 696.53037048 -136.9424469 696.87324097 -136.30105591 697.22650146 C-133.85202938 698.57517845 -131.40288815 699.92364677 -128.9535675 701.27178955 C-109.10579814 712.19770516 -89.33761898 723.26982129 -69.625 734.4375 C-60.19111736 739.78051178 -50.72328215 745.06060539 -41.23852539 750.31274414 C-35.4359138 753.52759735 -29.64382445 756.75923683 -23.87109375 760.02734375 C-22.72753418 760.67324463 -21.58397461 761.31914551 -20.40576172 761.98461914 C-18.2241723 763.2181555 -16.04470414 764.45545319 -13.86767578 765.69702148 C-12.89169434 766.24817627 -11.91571289 766.79933105 -10.91015625 767.3671875 C-10.05558838 767.85300293 -9.20102051 768.33881836 -8.32055664 768.83935547 C-5.28566991 770.36375441 -5.28566991 770.36375441 -2 771 C0.2603747 770.04184009 0.2603747 770.04184009 2.515625 768.4765625 C6.1898371 766.14490267 9.8742018 763.89946325 13.671875 761.7734375 C14.65430176 761.22292725 15.63672852 760.67241699 16.64892578 760.10522461 C17.67228027 759.53425049 18.69563477 758.96327637 19.75 758.375 C20.83909668 757.76599854 21.92819336 757.15699707 23.05029297 756.52954102 C30.95129189 752.12028128 38.88823369 747.78026218 46.84008789 743.46362305 C54.28875064 739.41050696 61.67316668 735.24983498 69.04785156 731.06396484 C77.60050145 726.21344387 86.19275573 721.43617554 94.79150391 716.66796875 C102.55888569 712.35954255 110.3148838 708.03136418 118.0625 703.6875 C125.74443627 699.38059979 133.43332077 695.08694195 141.13525391 690.81591797 C147.41251093 687.33230029 153.67536314 683.82320927 159.9375 680.3125 C178.087622 670.14078836 196.27952057 660.045029 214.5 650 C232.23130731 640.22392388 249.96029069 630.44474687 267.5625 620.4375 C276.89160378 615.13678011 286.31687149 610.02905206 295.7746582 604.9621582 C303.63557107 600.74741881 311.44336068 596.45333076 319.18994141 592.03222656 C321.13860514 590.9209573 323.09063718 589.81574891 325.04296875 588.7109375 C330.86016952 585.79949892 330.86016952 585.79949892 336 582 C336.09787626 579.95668643 336.12371222 577.90992078 336.12304783 575.86426449 C336.1247786 574.88749792 336.1247786 574.88749792 336.12654433 573.89099869 C336.12921732 571.68185977 336.12468327 569.47279193 336.12025452 567.26365662 C336.12069008 565.67474525 336.12156471 564.08583394 336.12284368 562.49692303 C336.12509158 558.10956738 336.12106336 553.7222359 336.11606562 549.33488333 C336.11176551 544.61161206 336.11320723 539.88834226 336.1139679 535.16506958 C336.11449341 526.97465629 336.11134374 518.78425094 336.10573006 510.59383965 C336.09761877 498.75173559 336.09500022 486.90963539 336.09374207 475.06752885 C336.09155096 455.85662187 336.08488929 436.64571913 336.07543945 417.43481445 C336.06626685 398.768148 336.05918527 380.1014827 336.05493164 361.43481445 C336.05466892 360.28508388 336.05440619 359.13535331 336.05413551 357.95078241 C336.05283051 352.18318562 336.0515668 346.41558882 336.05032361 340.64799201 C336.03994917 292.76532508 336.02232927 244.88266275 336 197 C335.25522652 196.61988266 335.25522652 196.61988266 334.4954071 196.23208618 C329.2202482 193.53945182 323.94595794 190.84512135 318.67211914 188.14990234 C316.71660211 187.15078911 314.76088041 186.15207634 312.80493164 185.15380859 C301.22688995 179.24427613 289.67828088 173.28570114 278.18795776 167.2071991 C271.90886984 163.88872975 265.58797352 160.65124151 259.26812744 157.4112854 C255.49012684 155.47429751 251.71390803 153.53384047 247.9375 151.59375 C246.80044113 151.0097216 246.80044113 151.0097216 245.64041138 150.41389465 C238.46213212 146.72592834 231.2921339 143.02206951 224.125 139.3125 C222.92919951 138.69376572 221.73339873 138.07503199 220.53759766 137.45629883 C214.80216665 134.48816303 209.06832793 131.51697266 203.3359375 128.54296875 C187.38958766 120.27542798 171.40305553 112.08861446 155.40515137 103.92132568 C143.13137596 97.65455139 130.86778874 91.3705493 118.64331055 85.00805664 C112.70770377 81.9192659 106.76346817 78.84830154 100.80859375 75.796875 C87.63832934 69.04463698 74.50545856 62.2633989 61.54956055 55.10498047 C54.96867393 51.48402318 48.28775178 48.10992069 41.54907227 44.79394531 C35.15085759 41.62559557 28.87943386 38.25503282 22.625 34.8125 C16.39079068 31.38518283 10.15841931 27.96713473 3.8125 24.75 C2.74644531 24.20859375 1.68039062 23.6671875 0.58203125 23.109375 C-3.8066874 21.22375307 -5.96108592 22.30693335 -9.98828125 24.421875 Z " fill="#0767AD" transform="translate(515,107)"/>
<path d="M0 0 C2.50926421 1.24962343 5.01796458 2.5003581 7.52636719 3.75170898 C8.22599579 4.09998497 8.92562439 4.44826096 9.64645386 4.80709076 C15.59856564 7.77809739 21.49392232 10.84897313 27.36083984 13.98510742 C27.99447449 14.32351654 28.62810913 14.66192566 29.28094482 15.0105896 C29.93073303 15.35772003 30.58052124 15.70485046 31.25 16.0625 C32.64136569 16.80392953 34.03280609 17.54521889 35.42431641 18.28637695 C39.61791522 20.52106543 43.80920383 22.76006112 48 25 C48.63280884 25.33809692 49.26561768 25.67619385 49.91760254 26.02453613 C58.61730495 30.67265141 67.31056966 35.33270737 76 40 C77.11632812 40.59941406 78.23265625 41.19882812 79.3828125 41.81640625 C89.76149137 47.39103307 100.13628019 52.97144362 110.46728516 58.6340332 C119.72052671 63.70579286 129.03096996 68.64756421 138.3996582 73.50268555 C144.93765151 76.89956944 151.41875954 80.3879652 157.875 83.9375 C165.69478862 88.23557087 173.57223813 92.40459859 181.5 96.5 C189.42785624 100.59545016 197.30274305 104.76894452 205.125 109.0625 C216.3394229 115.1853171 227.67209012 121.08978615 239 127 C239 215.77 239 304.54 239 396 C218.30843352 407.49531471 218.30843352 407.49531471 208.625 412.6875 C207.5419458 413.26999512 206.4588916 413.85249023 205.34301758 414.45263672 C200.11544262 417.26238807 194.88377143 420.06426557 189.64459229 422.85231018 C187.25183424 424.12567504 184.85991333 425.40060669 182.46820068 426.67593384 C180.70085102 427.61788426 178.93270372 428.55833759 177.16455078 429.4987793 C171.62414344 432.46102752 166.12921513 435.47426685 160.70703125 438.6484375 C159.73870361 439.21481934 158.77037598 439.78120117 157.77270508 440.36474609 C155.97266168 441.42635485 154.17906679 442.49900314 152.39331055 443.58447266 C151.60351807 444.05159668 150.81372559 444.5187207 150 445 C149.319375 445.4125 148.63875 445.825 147.9375 446.25 C145.44655183 447.214238 144.48068056 446.94656395 142 446 C140.24483436 445.15511505 138.51381743 444.25936293 136.80078125 443.33203125 C135.76961182 442.77588135 134.73844238 442.21973145 133.67602539 441.64672852 C132.01108032 440.7387854 132.01108032 440.7387854 130.3125 439.8125 C129.15419678 439.184646 127.99589355 438.55679199 126.80249023 437.90991211 C115.88196136 431.98028516 105.04673605 425.89925516 94.21679688 419.80615234 C80.48469204 412.09591315 66.71260386 404.45675892 52.875 396.9375 C41.8116357 390.92522213 30.82750396 384.7743933 19.85253906 378.60253906 C17.20320829 377.11416118 14.55142842 375.63027879 11.8984375 374.1484375 C10.43228419 373.32813837 8.96613777 372.50782691 7.5 371.6875 C6.8414502 371.32052002 6.18290039 370.95354004 5.50439453 370.57543945 C1.11336514 368.11336514 1.11336514 368.11336514 0 367 C-0.09773416 365.05047636 -0.1237129 363.09734897 -0.12304783 361.14537716 C-0.12503888 359.86497993 -0.12702993 358.58458271 -0.12908131 357.26538557 C-0.12622771 355.82592561 -0.1232821 354.38646583 -0.12025452 352.94700623 C-0.12069009 351.43234125 -0.12156473 349.91767635 -0.12284368 348.40301186 C-0.12509147 344.22088409 -0.12106351 340.03878168 -0.11606562 335.85665715 C-0.11176535 331.35424683 -0.11320724 326.85183806 -0.1139679 322.34942627 C-0.1144934 314.54206946 -0.11134384 306.73472097 -0.10573006 298.92736626 C-0.09761863 287.63910579 -0.09500021 276.35084938 -0.09374207 265.06258631 C-0.09155098 246.75013664 -0.08488937 228.4376914 -0.07543945 210.12524414 C-0.06626679 192.33162458 -0.05918525 174.53800622 -0.05493164 156.74438477 C-0.05466892 155.64842011 -0.05440619 154.55245546 -0.05413551 153.42327975 C-0.05283051 147.92539625 -0.0515668 142.42751273 -0.05032361 136.92962921 C-0.03994924 91.28641639 -0.02232939 45.64320843 0 0 Z " fill="#FDFDFD" transform="translate(172,322)"/>
<path d="M0 0 C0 84.81 0 169.62 0 257 C-7.92 261.29 -15.84 265.58 -24 270 C-31.06464974 274.01261292 -31.06464974 274.01261292 -38.12573242 278.03149414 C-47.79754843 283.51432617 -57.6306862 288.68834949 -67.46166992 293.87792969 C-75.68815563 298.22309694 -83.87254177 302.62798014 -91.96411133 307.22143555 C-94.62720815 308.72660561 -97.08858289 310.02952763 -100 311 C-100 225.86 -100 140.72 -100 53 C-90.1 47.72 -80.2 42.44 -70 37 C-61.25303706 32.05481208 -61.25303706 32.05481208 -52.51953125 27.0859375 C-45.90043423 23.34640131 -39.14577712 19.87851405 -32.38598633 16.40209961 C-25.07242099 12.61852318 -17.93041263 8.58858044 -10.84863281 4.38818359 C-10.11999023 3.95715332 -9.39134766 3.52612305 -8.640625 3.08203125 C-8.00672852 2.70280518 -7.37283203 2.3235791 -6.71972656 1.93286133 C-4.48423618 0.72022522 -2.55841981 0 0 0 Z " fill="#FCFDFD" transform="translate(531,396)"/>
<path d="M0 0 C1.56929161 0.7255251 3.11748849 1.49750174 4.6484375 2.30078125 C5.55916016 2.77676758 6.46988281 3.25275391 7.40820312 3.74316406 C8.38724609 4.26104492 9.36628906 4.77892578 10.375 5.3125 C11.91704102 6.12219238 11.91704102 6.12219238 13.49023438 6.94824219 C21.09405806 10.95503354 28.63414258 15.07177142 36.16357422 19.21606445 C44.8704189 23.98176302 53.69450503 28.50948466 62.52557373 33.03890991 C71.66300713 37.72807045 80.72282226 42.52826614 89.71484375 47.4921875 C97.24158879 51.62910959 104.8615946 55.5749522 112.5 59.5 C122.03672252 64.40082004 131.50268613 69.40749915 140.89453125 74.58203125 C147.71015811 78.32610904 154.59107178 81.93139114 161.5 85.5 C170.33771732 90.06540764 179.09907724 94.74758606 187.81445312 99.54199219 C194.4948209 103.20674797 201.23333747 106.74748477 208 110.25 C216.45985457 114.63019681 224.79187634 119.16332401 233 124 C233 124.99 233 125.98 233 127 C232.33282959 127.35602295 231.66565918 127.7120459 230.97827148 128.07885742 C218.93457992 134.51389146 206.92554057 140.98608377 195.0625 147.75 C187.5263681 152.04617948 179.93694964 156.19147461 172.22998047 160.17260742 C167.73435839 162.51092156 163.31064734 164.94557813 158.91796875 167.47265625 C157.88285156 168.06755859 156.84773437 168.66246094 155.78125 169.27539062 C153.76218839 170.44170462 151.74762195 171.61584542 149.73828125 172.79882812 C148.81789063 173.33056641 147.8975 173.86230469 146.94921875 174.41015625 C146.13799561 174.88590088 145.32677246 175.36164551 144.4909668 175.85180664 C141.5101428 177.22579618 139.29283438 177.85399575 136 178 C133.52207184 177.04764813 131.47142024 176.09272675 129.1875 174.80078125 C128.22471382 174.28167175 128.22471382 174.28167175 127.24247742 173.7520752 C125.15297345 172.6207261 123.07684164 171.46690237 121 170.3125 C119.54745026 169.52087418 118.09407316 168.73076469 116.63989258 167.94213867 C113.05726416 165.99471432 109.48458961 164.02988454 105.91558838 162.05761719 C102.37173578 160.10101761 98.81815996 158.16220815 95.265625 156.22143555 C93.5419483 155.27945276 91.81929586 154.33559337 90.09765625 153.38989258 C82.95619601 149.48007633 75.73654778 145.73031516 68.5 142 C59.50178426 137.36157549 50.56901956 132.62905336 41.69921875 127.75 C33.50820161 123.2532024 25.25770624 118.87261106 17 114.5 C7.82223777 109.64001244 -1.33621217 104.75233746 -10.4375 99.75 C-18.0698418 95.55678227 -25.76391972 91.49846993 -33.5 87.5 C-42.15800051 83.02484804 -50.7497666 78.44974618 -59.29150391 73.75683594 C-67.61785119 69.18887789 -75.99260969 64.71397656 -84.375 60.25 C-85.05581635 59.88740082 -85.73663269 59.52480164 -86.43807983 59.1512146 C-90.29129627 57.09938517 -94.14530641 55.04905336 -98 53 C-98 52.01 -98 51.02 -98 50 C-97.14583496 49.54786133 -96.29166992 49.09572266 -95.41162109 48.62988281 C-73.67225523 37.1198204 -73.67225523 37.1198204 -52.04638672 25.3984375 C-43.77825651 20.86625425 -35.47085716 16.40818909 -27.15625 11.96191406 C-22.52303431 9.47562731 -17.90684611 6.9816524 -13.3828125 4.30078125 C-12.73119141 3.9150293 -12.07957031 3.52927734 -11.40820312 3.13183594 C-9.77749182 2.15394499 -8.15766896 1.15795542 -6.5390625 0.16015625 C-3.56556833 -1.19850185 -3.00039721 -1.00814996 0 0 Z " fill="#FCFDFD" transform="translate(283,254)"/>
</svg>
