<?xml version="1.0" encoding="UTF-8"?>
<svg version="1.1" xmlns="http://www.w3.org/2000/svg" width="1536" height="1024">
<path d="M0 0 C506.88 0 1013.76 0 1536 0 C1536 337.92 1536 675.84 1536 1024 C1029.12 1024 522.24 1024 0 1024 C0 686.08 0 348.16 0 0 Z " fill="#FDFDFD" transform="translate(0,0)"/>
<path d="M0 0 C53.13 0 106.26 0 161 0 C161 19.47 161 38.94 161 59 C157.7 59 154.4 59 151 59 C150.84180786 57.7013501 150.84180786 57.7013501 150.68041992 56.37646484 C150.2772195 53.09179246 149.86831026 49.80792674 149.45581055 46.52441406 C149.2800999 45.11681033 149.1065159 43.70893911 148.93530273 42.30078125 C147.76807863 32.71653638 146.14968288 23.42411119 144 14 C126.1905851 9.73529875 126.1905851 9.73529875 92 10 C92.33 68.74 92.66 127.48 93 188 C100.77101291 189.29516882 107.96562402 190.34278697 115.75 190.625 C117.09964844 190.68300781 117.09964844 190.68300781 118.4765625 190.7421875 C120.65077156 190.83470703 122.82535587 190.9183434 125 191 C125 193.97 125 196.94 125 200 C95.63 200 66.26 200 36 200 C36 197.03 36 194.06 36 191 C37.37671875 190.96261719 38.7534375 190.92523437 40.171875 190.88671875 C42.03127381 190.82098243 43.89064767 190.75453787 45.75 190.6875 C46.65105469 190.66494141 47.55210937 190.64238281 48.48046875 190.61914062 C55.94753382 190.32787213 61.42747746 188.89313063 69 187 C69.33 128.26 69.66 69.52 70 9 C43.8524668 9.01062788 43.8524668 9.01062788 18 14 C11.82604229 22.09001355 12.55789769 35.81002444 11.69702148 45.61352539 C11.29915553 50.1180708 10.82997503 54.54898344 10 59 C6.7 59 3.4 59 0 59 C0 39.53 0 20.06 0 0 Z " fill="#C8C7C8" transform="translate(268,384)"/>
<path d="M0 0 C0 26.07 0 52.14 0 79 C0.66 79 1.32 79 2 79 C2.23847656 78.42121094 2.47695313 77.84242188 2.72265625 77.24609375 C6.4321664 70.7232548 14.82220142 65.70796512 21.609375 62.84765625 C26.1388711 61.71528222 30.46848346 61.49563165 35.125 61.4375 C35.96015137 61.42267578 36.79530273 61.40785156 37.65576172 61.39257812 C46.11742195 61.53268841 53.29077261 64.54228146 59.5 70.3203125 C68.37839969 80.26227049 67.3129086 95.32667393 67.4140625 107.828125 C67.4328214 109.31314106 67.45239812 110.79814698 67.4727478 112.28314209 C67.52357728 116.14957645 67.56346252 120.0160452 67.60089111 123.88262939 C67.64124333 127.84501297 67.69219145 131.8072597 67.7421875 135.76953125 C67.83836248 143.51292617 67.92294962 151.25638862 68 159 C71.88565775 160.64182722 75.08933893 161.34654982 79.3125 161.625 C80.38113281 161.69976563 81.44976563 161.77453125 82.55078125 161.8515625 C83.76314453 161.92503906 83.76314453 161.92503906 85 162 C85 164.64 85 167.28 85 170 C67.18 170 49.36 170 31 170 C31 167.36 31 164.72 31 162 C32.07121094 161.86722656 33.14242187 161.73445312 34.24609375 161.59765625 C35.64325769 161.4194944 37.04039159 161.24109681 38.4375 161.0625 C39.49807617 160.93198242 39.49807617 160.93198242 40.58007812 160.79882812 C44.08817968 160.61783809 44.08817968 160.61783809 47 159 C47.11013806 156.83408314 47.1491423 154.6645318 47.16113281 152.49584961 C47.16609772 151.81605042 47.17106262 151.13625122 47.17617798 150.43585205 C47.19084433 148.17467246 47.19761191 145.91356321 47.203125 143.65234375 C47.20887648 142.08110044 47.21463421 140.50985716 47.22039795 138.93861389 C47.23092316 135.63558627 47.23675464 132.33258306 47.24023438 129.02954102 C47.24569688 124.81188132 47.26966985 120.59454811 47.29820633 116.37699032 C47.31690855 113.12631824 47.32204251 109.87572323 47.32357025 106.62500191 C47.32658447 105.07137852 47.33457118 103.51775609 47.34775543 101.96418571 C47.93594937 89.35196361 47.93594937 89.35196361 42.5479126 78.46226501 C36.94849611 73.59527173 32.16628221 73.41564218 24.96484375 73.60546875 C15.65825033 74.53154356 8.90418809 80.05352959 2.88778687 86.92602539 C-0.70421951 92.77506301 -0.14107146 99.15744057 0.05078125 105.78125 C0.06251715 107.28671906 0.07052416 108.79222133 0.07499695 110.29772949 C0.09320263 113.43194485 0.14013976 116.56380824 0.21118164 119.69726562 C0.30224754 123.71686731 0.34491724 127.73505467 0.36942768 131.75556183 C0.39413552 135.5976518 0.43921159 139.43940388 0.48828125 143.28125 C0.49658777 144.01372452 0.50489429 144.74619904 0.51345253 145.50086975 C0.54123569 147.56412513 0.58313647 149.62655651 0.63012695 151.68945312 C0.65283157 152.86286255 0.67553619 154.03627197 0.69892883 155.24523926 C0.72463059 158.14202931 0.72463059 158.14202931 3 160 C5.72469786 160.46659731 8.38179802 160.83599254 11.125 161.125 C11.87910156 161.21136719 12.63320313 161.29773438 13.41015625 161.38671875 C15.27257127 161.59889261 17.13618931 161.80045763 19 162 C19 164.64 19 167.28 19 170 C0.85 170 -17.3 170 -36 170 C-36 167.36 -36 164.72 -36 162 C-34.94039063 161.86722656 -33.88078125 161.73445312 -32.7890625 161.59765625 C-31.40101721 161.41946125 -30.01299769 161.2410654 -28.625 161.0625 C-27.92632812 160.97548828 -27.22765625 160.88847656 -26.5078125 160.79882812 C-22.63216425 160.33681872 -22.63216425 160.33681872 -19 159 C-19 111.15 -19 63.3 -19 14 C-26.01211799 11.60126854 -26.01211799 11.60126854 -33.0625 9.8125 C-33.81660156 9.65394531 -34.57070313 9.49539063 -35.34765625 9.33203125 C-35.89292969 9.22246094 -36.43820312 9.11289062 -37 9 C-37 6.36 -37 3.72 -37 1 C-33.83367822 0.82635108 -30.66691102 0.66251832 -27.5 0.5 C-26.63246094 0.45230469 -25.76492188 0.40460938 -24.87109375 0.35546875 C-16.54889819 -0.06363462 -8.37130556 0 0 0 Z " fill="#C8C8C8" transform="translate(483,414)"/>
<path d="M0 0 C12.21 0 24.42 0 37 0 C37 37.62 37 75.24 37 114 C43.22065563 109.47057209 43.22065563 109.47057209 48.6875 104.4375 C49.20699219 103.89996094 49.72648438 103.36242187 50.26171875 102.80859375 C50.83535156 102.21175781 51.40898438 101.61492187 52 101 C54.74114867 98.24481814 57.4983087 95.5062459 60.26171875 92.7734375 C61.40367723 91.64065665 62.54560388 90.50784371 63.6875 89.375 C64.55858398 88.51648438 64.55858398 88.51648438 65.44726562 87.640625 C66.00478516 87.08632813 66.56230469 86.53203125 67.13671875 85.9609375 C67.63905029 85.46384277 68.14138184 84.96674805 68.65893555 84.45458984 C71.85003123 80.99335772 72 79.93239347 72 75 C68.04 74.01 64.08 73.02 60 72 C60 69.36 60 66.72 60 64 C75.84 64 91.68 64 108 64 C108 66.64 108 69.28 108 72 C107.2265625 72.08636719 106.453125 72.17273438 105.65625 72.26171875 C90.32786205 74.32953346 81.70355743 84.17767526 71.18359375 94.84765625 C67.92633505 98.05829944 64.48809488 101.04414848 61 104 C66.39286509 112.53870307 73.11078012 120.14595884 79.5078125 127.9375 C81.87597666 130.84759515 84.21796156 133.7766182 86.5534668 136.71289062 C97.20532551 151.62692402 97.20532551 151.62692402 112.75 159.6875 C118.92706872 160.92706872 118.92706872 160.92706872 120 162 C120 164.31 120 166.62 120 169 C102.18 169 84.36 169 66 169 C66 166.36 66 163.72 66 161 C70.455 160.01 70.455 160.01 75 159 C75.87979678 156.78229423 75.87979678 156.78229423 76 154 C74.40613743 151.14847918 74.40613743 151.14847918 71.9375 148.3125 C71.01637173 147.17362603 70.09583385 146.03427438 69.17578125 144.89453125 C68.66998535 144.27787598 68.16418945 143.6612207 67.64306641 143.02587891 C64.5699131 139.23672197 61.60868297 135.35969134 58.625 131.5 C55.11208004 126.97658578 51.59301996 122.46030064 48 118 C43.81656368 118.48270419 40.65400078 120.84615658 38 124 C37.14649562 127.51001031 37.14649562 127.51001031 37.34375 131.3828125 C37.34749634 132.07889618 37.35124268 132.77497986 37.35510254 133.49215698 C37.36849275 134.95639349 37.39622315 136.4205615 37.4375 137.88427734 C37.50000977 140.12535025 37.51946366 142.36360904 37.53125 144.60546875 C37.30087023 152.18274076 37.30087023 152.18274076 40 159 C42.59270699 159.54475978 45.00451945 159.92400149 47.625 160.1875 C48.68460938 160.3102832 48.68460938 160.3102832 49.765625 160.43554688 C51.5090683 160.63580725 53.25440086 160.81949401 55 161 C55 163.64 55 166.28 55 169 C36.85 169 18.7 169 0 169 C0 162 0 162 1 161 C2.91227495 160.78882853 4.8305714 160.63108293 6.75 160.5 C10.64678101 160.23125648 14.14270697 159.77145861 18 159 C18 111.15 18 63.3 18 14 C10.90341962 11.47154406 10.90341962 11.47154406 3.9375 10.3125 C2.638125 10.209375 1.33875 10.10625 0 10 C0 6.7 0 3.4 0 0 Z " fill="#C7C6C7" transform="translate(784,415)"/>
<path d="M0 0 C2 1.4375 2 1.4375 3 3 C3 3.66 3 4.32 3 5 C107.28 5 211.56 5 319 5 C317.515 9.455 317.515 9.455 316 14 C212.71 14 109.42 14 3 14 C2.67 15.32 2.34 16.64 2 18 C-1.02207395 20.01471597 -1.91726699 20.33719034 -5.375 20.4375 C-6.50035156 20.49744141 -6.50035156 20.49744141 -7.6484375 20.55859375 C-10 20 -10 20 -11.82401562 17.50504017 C-15.3484351 13.90550202 -19.52821285 14.38366161 -24.30870754 14.32842034 C-26.21871705 14.34443023 -26.21871705 14.34443023 -28.16731262 14.36076355 C-29.53694828 14.35445161 -30.9065753 14.34594859 -32.27618521 14.33544332 C-36.03900727 14.31292448 -39.80121652 14.32150712 -43.56405771 14.3351289 C-47.62200335 14.34438419 -51.67982175 14.32485313 -55.73773193 14.30880737 C-62.76803511 14.28495317 -69.79816296 14.27936219 -76.82850075 14.28615379 C-86.99316488 14.29594693 -97.15763437 14.27823054 -107.32226702 14.25378648 C-123.81340039 14.21487605 -140.30447817 14.19823271 -156.7956543 14.19555664 C-172.81586561 14.19290939 -188.83601193 14.17979747 -204.85620117 14.15258789 C-205.84358309 14.15091451 -206.83096501 14.14924113 -207.84826759 14.14751705 C-212.80164231 14.13905761 -217.75501665 14.1303922 -222.70839083 14.12162435 C-263.80558288 14.04914578 -304.90274881 14.01278939 -346 14 C-345.41321669 10.47930015 -344.64350079 8.28700157 -343 5 C-234.43 5 -125.86 5 -14 5 C-13.34 3.68 -12.68 2.36 -12 1 C-8.41260251 -1.89751336 -4.20688116 -1.10754408 0 0 Z " fill="#C7C7C8" transform="translate(923,602)"/>
<path d="M0 0 C7.11092236 4.66221953 10.66538743 10.16829324 13.0078125 18.31640625 C13.87279936 22.7239905 14.15642279 26.93499174 14.21313477 31.42333984 C14.22303436 32.10696594 14.23293396 32.79059204 14.24313354 33.49493408 C14.27450013 35.7348698 14.29940669 37.97482667 14.32421875 40.21484375 C14.34480979 41.77569096 14.3658068 43.33653285 14.38719177 44.89736938 C14.44219055 48.99078046 14.491697 53.08424 14.54003906 57.17773438 C14.59041691 61.36072057 14.64601769 65.54363704 14.70117188 69.7265625 C14.80848168 77.92311799 14.90998613 86.11973211 15.0078125 94.31640625 C18.89347025 95.95823347 22.09715143 96.66295607 26.3203125 96.94140625 C27.38894531 97.01617188 28.45757813 97.0909375 29.55859375 97.16796875 C30.77095703 97.24144531 30.77095703 97.24144531 32.0078125 97.31640625 C32.0078125 99.95640625 32.0078125 102.59640625 32.0078125 105.31640625 C14.1878125 105.31640625 -3.6321875 105.31640625 -21.9921875 105.31640625 C-21.9921875 102.67640625 -21.9921875 100.03640625 -21.9921875 97.31640625 C-20.92097656 97.18363281 -19.84976563 97.05085937 -18.74609375 96.9140625 C-17.34892981 96.73590065 -15.95179591 96.55750306 -14.5546875 96.37890625 C-13.84763672 96.29189453 -13.14058594 96.20488281 -12.41210938 96.11523438 C-8.90400782 95.93424434 -8.90400782 95.93424434 -5.9921875 94.31640625 C-5.88204944 92.15048939 -5.8430452 89.98093805 -5.83105469 87.81225586 C-5.82608978 87.13245667 -5.82112488 86.45265747 -5.81600952 85.7522583 C-5.80134317 83.49107871 -5.79457559 81.22996946 -5.7890625 78.96875 C-5.78331102 77.39750669 -5.77755329 75.82626341 -5.77178955 74.25502014 C-5.76126434 70.95199252 -5.75543286 67.64898931 -5.75195312 64.34594727 C-5.74649062 60.12828757 -5.72251765 55.91095436 -5.69398117 51.69339657 C-5.67527895 48.44272449 -5.67014499 45.19212948 -5.66861725 41.94140816 C-5.66560303 40.38778477 -5.65761632 38.83416234 -5.64443207 37.28059196 C-5.07525649 24.69294051 -5.07525649 24.69294051 -10.40887451 13.77867126 C-15.78778514 9.02331906 -20.67676954 8.90016641 -27.57421875 8.984375 C-37.31095315 9.9302292 -43.8241344 16.16483671 -49.9921875 23.31640625 C-51.43090884 26.19384893 -51.11155903 28.66206547 -51.10571289 31.87744141 C-51.10585892 32.55072983 -51.10600494 33.22401825 -51.1061554 33.91770935 C-51.10545777 36.14699506 -51.09767239 38.3761976 -51.08984375 40.60546875 C-51.08797904 42.14960688 -51.08655539 43.69374559 -51.08555603 45.23788452 C-51.08173504 49.30511097 -51.07190832 53.3723018 -51.06085205 57.43951416 C-51.05062894 61.58857745 -51.04605648 65.7376465 -51.04101562 69.88671875 C-51.03028569 78.02996428 -51.01321427 86.17318083 -50.9921875 94.31640625 C-47.10652975 95.95823347 -43.90284857 96.66295607 -39.6796875 96.94140625 C-38.61105469 97.01617188 -37.54242187 97.0909375 -36.44140625 97.16796875 C-35.22904297 97.24144531 -35.22904297 97.24144531 -33.9921875 97.31640625 C-33.9921875 99.95640625 -33.9921875 102.59640625 -33.9921875 105.31640625 C-52.1421875 105.31640625 -70.2921875 105.31640625 -88.9921875 105.31640625 C-88.9921875 102.67640625 -88.9921875 100.03640625 -88.9921875 97.31640625 C-83.28528116 96.3239008 -77.77810261 96.21163113 -71.9921875 96.31640625 C-70.98661807 92.14151001 -70.85940858 88.21550117 -70.84692383 83.92749023 C-70.84356522 83.20166748 -70.8402066 82.47584473 -70.83674622 81.72802734 C-70.82728152 79.33950062 -70.82529568 76.95104428 -70.82421875 74.5625 C-70.82100418 72.89770987 -70.81763995 71.23292003 -70.81413269 69.56813049 C-70.80815346 66.0839065 -70.80629166 62.59970728 -70.80688477 59.11547852 C-70.80698658 54.65099638 -70.79330933 50.1866726 -70.77611256 45.72222805 C-70.76499814 42.28643564 -70.76296535 38.85068167 -70.76349449 35.41487312 C-70.7623145 33.7686413 -70.75789163 32.12240848 -70.75016212 30.47619438 C-70.74036899 28.17599201 -70.74323696 25.87613563 -70.74926758 23.57592773 C-70.74784256 22.26752426 -70.74641754 20.95912079 -70.74494934 19.61106873 C-70.97613004 16.53038585 -71.24716489 14.82663327 -72.9921875 12.31640625 C-76.4552273 10.51012297 -79.97392522 9.83755892 -83.8046875 9.19140625 C-85.26841797 8.94003906 -85.26841797 8.94003906 -86.76171875 8.68359375 C-87.49777344 8.56242187 -88.23382812 8.44125 -88.9921875 8.31640625 C-88.9921875 5.67640625 -88.9921875 3.03640625 -88.9921875 0.31640625 C-81.14627365 -0.69954995 -73.33341815 -0.99948118 -65.4296875 -1.24609375 C-64.13482422 -1.28927734 -62.83996094 -1.33246094 -61.50585938 -1.37695312 C-58.33473687 -1.48226716 -55.16347459 -1.58335805 -51.9921875 -1.68359375 C-51.4971875 5.74140625 -51.4971875 5.74140625 -50.9921875 13.31640625 C-49.6 11.80046875 -49.6 11.80046875 -48.1796875 10.25390625 C-35.96594004 -1.95984121 -16.32756028 -8.16378014 0 0 Z " fill="#C8C8C8" transform="translate(739.9921875,478.68359375)"/>
<path d="M0 0 C5.95977095 6.13005012 8.27934971 11.89902704 8.37695312 20.36376953 C8.39367065 21.59829865 8.41038818 22.83282776 8.4276123 24.10476685 C8.43429428 24.76119297 8.44097626 25.41761909 8.44786072 26.09393692 C8.46895878 28.15319029 8.49597271 30.21229136 8.52453613 32.27145386 C8.59422446 37.38255183 8.65382663 42.49375817 8.71356201 47.60498047 C8.76447177 51.93029269 8.81927354 56.25552067 8.87937927 60.58071518 C8.90597084 62.61149351 8.92677 64.64227972 8.9473877 66.67312622 C8.96410522 67.90135101 8.98082275 69.12957581 8.99804688 70.39501953 C9.01057495 71.47993683 9.02310303 72.56485413 9.03601074 73.68264771 C9.01776008 76.23864695 9.01776008 76.23864695 10.1875 78.25 C13.23331269 78.71954261 13.23331269 78.71954261 16.75 78.875 C17.94753906 78.94976562 19.14507813 79.02453125 20.37890625 79.1015625 C21.76916016 79.17503906 21.76916016 79.17503906 23.1875 79.25 C23.1875 82.22 23.1875 85.19 23.1875 88.25 C7.6775 88.25 -7.8325 88.25 -23.8125 88.25 C-23.8125 85.28 -23.8125 82.31 -23.8125 79.25 C-23.11382813 79.18941406 -22.41515625 79.12882812 -21.6953125 79.06640625 C-20.78523437 78.98261719 -19.87515625 78.89882813 -18.9375 78.8125 C-18.03257812 78.73128906 -17.12765625 78.65007812 -16.1953125 78.56640625 C-13.80139139 78.38010715 -13.80139139 78.38010715 -11.8125 77.25 C-11.69642285 69.5307905 -11.60769229 61.81167199 -11.55343914 54.09178734 C-11.52739389 50.50667776 -11.4920917 46.9221672 -11.43530273 43.33740234 C-11.38079726 39.8749367 -11.35104133 36.41304556 -11.33811378 32.95018387 C-11.32443926 30.99250572 -11.28543477 29.03505732 -11.24601746 27.07772827 C-11.06475009 19.77417994 -11.06475009 19.77417994 -14.21801758 13.45556641 C-18.79161855 9.56755369 -22.46987164 9.85688022 -28.34765625 9.90234375 C-36.0979626 10.67999568 -42.2791229 14.99329176 -47.8125 20.25 C-50.0568195 23.61647925 -50.0575516 24.70622646 -50.03955078 28.6394043 C-50.03932419 30.29077644 -50.03932419 30.29077644 -50.03909302 31.97550964 C-50.02877045 33.16308365 -50.01844788 34.35065765 -50.0078125 35.57421875 C-50.00356766 37.39902519 -50.00356766 37.39902519 -49.99923706 39.26069641 C-49.98802603 43.15306358 -49.96291948 47.04520216 -49.9375 50.9375 C-49.92747141 53.57356439 -49.91834535 56.20963238 -49.91015625 58.84570312 C-49.88808363 65.3138904 -49.85354721 71.78190642 -49.8125 78.25 C-45.5225 78.58 -41.2325 78.91 -36.8125 79.25 C-36.8125 82.22 -36.8125 85.19 -36.8125 88.25 C-52.6525 88.25 -68.4925 88.25 -84.8125 88.25 C-84.8125 85.61 -84.8125 82.97 -84.8125 80.25 C-77.8825 79.26 -77.8825 79.26 -70.8125 78.25 C-70.8125 56.14 -70.8125 34.03 -70.8125 11.25 C-75.67767472 9.85995008 -79.86808357 8.85543875 -84.8125 8.25 C-84.8125 5.28 -84.8125 2.31 -84.8125 -0.75 C-73.98028394 -4.52868002 -62.13742356 -3.90281006 -50.8125 -3.75 C-50.3175 2.19 -50.3175 2.19 -49.8125 8.25 C-48.41 7.033125 -47.0075 5.81625 -45.5625 4.5625 C-31.75181128 -6.533267 -15.33975778 -9.54473818 0 0 Z " fill="#7AC4D0" transform="translate(986.8125,428.75)"/>
<path d="M0 0 C14.52 0 29.04 0 44 0 C44 3.96 44 7.92 44 12 C41.36 12.33 38.72 12.66 36 13 C36.58080371 17.15575065 38.86961334 19.79090286 41.375 23.0625 C42.16648437 24.10535156 42.95796875 25.14820313 43.7734375 26.22265625 C45.43995099 28.30141255 47.05759605 30.18917826 49 32 C52.8137933 30.72873557 53.88032657 28.99972747 56.375 25.875 C57.16519531 24.88628906 57.95539063 23.89757812 58.76953125 22.87890625 C61.27635106 19.6433087 63.67825626 16.37027317 66 13 C62.37 12.34 58.74 11.68 55 11 C55 7.37 55 3.74 55 0 C67.87 0 80.74 0 94 0 C94 3.63 94 7.26 94 11 C92.453125 11.226875 90.90625 11.45375 89.3125 11.6875 C77.86474837 14.7962202 69.84133362 26.80932291 62.8046875 35.7578125 C61 38 61 38 59.1953125 39.5546875 C57.80641305 40.91820875 57.80641305 40.91820875 58.015625 42.796875 C59.4432173 45.99196252 61.55667198 48.55656585 63.75 51.25 C64.23082031 51.85046143 64.71164062 52.45092285 65.20703125 53.06958008 C66.79796988 55.05189571 68.39892145 57.02586828 70 59 C71.17222542 60.45674934 72.34409487 61.91378519 73.515625 63.37109375 C74.67647189 64.8103892 75.83791801 66.24920158 77 67.6875 C77.55139648 68.37038086 78.10279297 69.05326172 78.67089844 69.75683594 C79.19200195 70.39782227 79.71310547 71.03880859 80.25 71.69921875 C80.70890625 72.26471436 81.1678125 72.83020996 81.640625 73.4128418 C84.44401414 76.89276022 84.44401414 76.89276022 88.4453125 78.4765625 C89.77175781 78.55003906 89.77175781 78.55003906 91.125 78.625 C95.91666667 78.91666667 95.91666667 78.91666667 97 80 C97.0979057 81.49738124 97.12974864 82.99942892 97.125 84.5 C97.12886719 85.72203125 97.12886719 85.72203125 97.1328125 86.96875 C97 89 97 89 96 90 C94.58774954 90.0928726 93.17091066 90.11746772 91.75561523 90.11352539 C90.40432777 90.11341209 90.40432777 90.11341209 89.02574158 90.11329651 C88.04658279 90.10813522 87.06742401 90.10297394 86.05859375 90.09765625 C85.06118668 90.0962413 84.0637796 90.09482635 83.03614807 90.09336853 C79.83656876 90.08775114 76.63705831 90.07519571 73.4375 90.0625 C71.27408955 90.05748724 69.11067801 90.05292395 66.94726562 90.04882812 C61.63148371 90.03777606 56.31575354 90.02049979 51 90 C51 86.37 51 82.74 51 79 C55.455 78.505 55.455 78.505 60 78 C55.4754266 70.56273248 50.58047693 63.68207757 45 57 C38.52455001 61.95991914 33.20387763 67.99690578 29 75 C29.33 75.99 29.66 76.98 30 78 C32.97 78.33 35.94 78.66 39 79 C39 82.63 39 86.26 39 90 C25.8 90 12.6 90 -1 90 C-1 86.37 -1 82.74 -1 79 C-0.2265625 78.87625 0.546875 78.7525 1.34375 78.625 C9.58218078 76.99362757 13.70716694 74.41380426 19 68 C20.14487446 66.70748336 21.29069805 65.41580676 22.4375 64.125 C22.99566406 63.47273438 23.55382813 62.82046875 24.12890625 62.1484375 C25.52512901 60.54525897 26.95538484 58.97160201 28.40234375 57.4140625 C29.21832031 56.53492188 30.03429688 55.65578125 30.875 54.75 C31.63554688 53.94046875 32.39609375 53.1309375 33.1796875 52.296875 C35.55188323 49.46891052 35.55188323 49.46891052 36 46 C34.47045923 43.82933435 32.97462788 42.0009361 31.1875 40.0625 C30.16538347 38.90853473 29.14591709 37.75221751 28.12890625 36.59375 C27.60699707 36.00207031 27.08508789 35.41039062 26.54736328 34.80078125 C23.28121807 30.99972617 20.31011017 26.96872433 17.2890625 22.97265625 C16.53367187 21.99167969 15.77828125 21.01070313 15 20 C14.59982666 19.45698242 14.19965332 18.91396484 13.78735352 18.35449219 C11.05946001 14.81149532 9.03273795 13.16785711 4.6875 12.125 C3.140625 11.75375 1.59375 11.3825 0 11 C0 7.37 0 3.74 0 0 Z " fill="#7BC4D0" transform="translate(1116,425)"/>
<path d="M0 0 C14.52 0 29.04 0 44 0 C44 3.3 44 6.6 44 10 C41.03 10.66 38.06 11.32 35 12 C33.91864839 16.32540643 34.08964418 17.01156027 35.73828125 20.90234375 C36.14183838 21.8658374 36.54539551 22.82933105 36.96118164 23.82202148 C37.4071167 24.85012939 37.85305176 25.8782373 38.3125 26.9375 C38.76165771 27.99332275 39.21081543 29.04914551 39.67358398 30.13696289 C45.70088223 47.10169786 45.70088223 47.10169786 55 62 C56.9417447 57.03895529 58.88051397 52.07676153 60.81665039 47.11352539 C61.47438156 45.42864355 62.13289526 43.74406695 62.79223633 42.05981445 C63.74511156 39.62533003 64.69507632 37.18972632 65.64453125 34.75390625 C65.9352803 34.01290176 66.22602936 33.27189728 66.52558899 32.50843811 C67.98283284 28.76174494 69.38573125 24.99885524 70.7097168 21.20288086 C70.95787643 20.49296494 71.20603607 19.78304901 71.4617157 19.05162048 C72.16918718 16.70866887 72.16918718 16.70866887 72 13 C68.37 12.01 64.74 11.02 61 10 C61 6.7 61 3.4 61 0 C73.87 0 86.74 0 100 0 C100 3.3 100 6.6 100 10 C96.24023438 11.02539062 96.24023438 11.02539062 92.48046875 12.05078125 C88.83971598 13.4440142 87.53110643 14.95140526 85.78125 18.40625 C85.3584375 19.4271875 84.935625 20.448125 84.5 21.5 C84.25717285 22.08168945 84.0143457 22.66337891 83.76416016 23.26269531 C82.83309555 25.50457895 81.91647357 27.75211067 81 30 C80.36336426 31.55364258 80.36336426 31.55364258 79.71386719 33.13867188 C75.83074542 42.61639528 71.95340251 52.09681399 68.15625 61.609375 C65.18847623 69.03708249 62.20281515 76.45735022 59.19189453 83.86767578 C58.48113564 85.62131477 57.77344681 87.37620123 57.06884766 89.13232422 C45.37290618 118.26604907 45.37290618 118.26604907 33.6875 124.16796875 C30.38769567 125.18956515 27.51482041 125.30125466 24.0625 125.3125 C22.87785156 125.32925781 21.69320313 125.34601563 20.47265625 125.36328125 C15.52795251 124.84600628 12.25849826 123.15914313 8.625 119.8125 C6.49921828 116.13326241 5.9888874 113.08304247 7 109 C9.32094975 104.72715612 11.78343608 102.42805027 16.375 100.8125 C20.97886667 101.05063103 24.19373744 102.45145898 28 105 C28.48984375 105.56203125 28.9796875 106.1240625 29.484375 106.703125 C30.9253971 108.2356637 30.9253971 108.2356637 33.03125 107.90625 C36.74946865 106.19468903 38.13444106 102.48472331 40 99 C40.40992188 98.23429688 40.81984375 97.46859375 41.2421875 96.6796875 C43.62960582 91.82252609 44.2401446 89.40090285 43 84 C41.811088 80.90575703 40.41890075 77.9161067 39.015625 74.9140625 C38.19304413 73.1215639 37.37078833 71.3289161 36.54882812 69.53613281 C36.12577393 68.61932739 35.70271973 67.70252197 35.2668457 66.75793457 C33.26607042 62.40222865 31.31437334 58.02482813 29.359375 53.6484375 C28.5914694 51.93605278 27.82324014 50.22381317 27.0546875 48.51171875 C25.89308009 45.92351532 24.7321141 43.33503503 23.57324219 40.74560547 C17.86041274 24.69737867 17.86041274 24.69737867 8 12 C5.95415921 11.33841957 5.95415921 11.33841957 3.8125 10.875 C2.554375 10.58625 1.29625 10.2975 0 10 C0 6.7 0 3.4 0 0 Z " fill="#7BC5D1" transform="translate(1010,425)"/>
<path d="M0 0 C2.13080698 2.13080698 1.1863178 6.97379828 1.20532227 9.92602539 C1.21522186 10.86251419 1.22512146 11.79900299 1.23532104 12.76387024 C1.26703753 15.87510608 1.29173341 18.98635722 1.31640625 22.09765625 C1.33696703 24.24857492 1.35796325 26.39948946 1.37937927 28.55039978 C1.4346905 34.22377189 1.48405972 39.89718101 1.53222656 45.57061768 C1.58237567 51.35505484 1.63809606 57.13943796 1.69335938 62.92382812 C1.80105158 74.28250598 1.90247182 85.64123065 2 97 C6.365395 98.28593031 10.39470945 99.288497 14.9375 99.625 C15.89527344 99.69976563 16.85304688 99.77453125 17.83984375 99.8515625 C18.90912109 99.92503906 18.90912109 99.92503906 20 100 C20 102.64 20 105.28 20 108 C1.19 108 -17.62 108 -37 108 C-37 105.36 -37 102.72 -37 100 C-28.585 99.01 -28.585 99.01 -20 98 C-18.08536026 93.21340065 -17.75144772 90.83672447 -17.75708008 85.82641602 C-17.75518173 85.12331299 -17.75328339 84.42020996 -17.75132751 83.69580078 C-17.74763622 81.38172089 -17.75830208 79.06795806 -17.76953125 76.75390625 C-17.77072433 75.13874854 -17.77117594 73.52359013 -17.7709198 71.90843201 C-17.77248194 68.52671959 -17.78074983 65.14511343 -17.79418945 61.76342773 C-17.81116515 57.43818326 -17.81500395 53.1130556 -17.81424427 48.78778172 C-17.81451682 45.45312901 -17.82001186 42.11850161 -17.82724571 38.78385735 C-17.83041822 37.18952564 -17.83239646 35.59519109 -17.83313942 34.0008564 C-17.83531886 31.76818128 -17.84409783 29.53562737 -17.85473633 27.30297852 C-17.85854813 26.03454605 -17.86235992 24.76611359 -17.86628723 23.45924377 C-17.99161304 20.2169766 -18.38581715 17.18220898 -19 14 C-19.79664063 13.86722656 -20.59328125 13.73445313 -21.4140625 13.59765625 C-23.5390625 13.24348958 -25.6640625 12.88932292 -27.7890625 12.53515625 C-28.84867188 12.35855469 -29.90828125 12.18195313 -31 12 C-33 11.66666667 -35 11.33333333 -37 11 C-37 8.36 -37 5.72 -37 3 C-36.2793335 2.94465088 -35.55866699 2.88930176 -34.81616211 2.83227539 C-31.52308909 2.57802592 -28.23029747 2.32029258 -24.9375 2.0625 C-23.80376953 1.97548828 -22.67003906 1.88847656 -21.50195312 1.79882812 C-14.45721606 1.24428614 -7.04585136 -0.41446184 0 0 Z " fill="#C9C9C9" transform="translate(617,476)"/>
<path d="M0 0 C1.4540625 0.86625 1.4540625 0.86625 2.9375 1.75 C3.948125 2.28625 4.95875 2.8225 6 3.375 C10.44651206 6.97005231 13.38959439 11.65418877 15.9375 16.75 C16.75765392 26.00026064 16.18703573 34.30689007 10.32421875 41.81640625 C4.02691315 48.50467539 -2.69933027 50.81082455 -11.75 51.125 C-19.19151917 51.03358085 -24.48709641 48.79246607 -30.1328125 43.98828125 C-35.66902838 38.27833475 -37.9918347 31.6265621 -38.5 23.75 C-38.17187951 16.98251497 -35.41685008 10.79543818 -30.8125 5.875 C-22.34002852 -1.65410805 -10.99007235 -4.44018548 0 0 Z " fill="#71C1CF" transform="translate(1254.0625,373.25)"/>
<path d="M0 0 C2.2755899 1.46837051 4.18184799 2.98422161 6.125 4.8671875 C6.90617187 5.62128906 6.90617187 5.62128906 7.703125 6.390625 C13.0258981 12.17225785 13.61214023 18.31869108 13.52734375 25.875 C12.92494391 30.35498328 10.9599424 33.42475744 8.125 36.8671875 C2.94666547 33.9081392 -1.05499358 30.21093507 -3.875 24.8671875 C-2.875 21.8671875 -2.875 21.8671875 -0.8125 20.1796875 C1.30370686 17.65389221 1.45825853 16.96667878 1.5625 13.8046875 C1.44052253 10.04008724 1.44052253 10.04008724 -0.125 7.9296875 C-3.3510973 5.97098557 -6.71044961 5.72632164 -10.421875 5.55078125 C-11.26621094 5.50888672 -12.11054687 5.46699219 -12.98046875 5.42382812 C-13.85316406 5.38451172 -14.72585938 5.34519531 -15.625 5.3046875 C-16.51316406 5.26150391 -17.40132812 5.21832031 -18.31640625 5.17382812 C-20.50245963 5.06805135 -22.68862089 4.96596204 -24.875 4.8671875 C-24.875 6.1871875 -24.875 7.5071875 -24.875 8.8671875 C-23.885 9.1971875 -22.895 9.5271875 -21.875 9.8671875 C-21.81699172 13.47128669 -21.78140131 17.07526601 -21.75 20.6796875 C-21.73324219 21.70384766 -21.71648437 22.72800781 -21.69921875 23.78320312 C-21.69277344 24.76611328 -21.68632813 25.74902344 -21.6796875 26.76171875 C-21.66921387 27.66768799 -21.65874023 28.57365723 -21.64794922 29.50708008 C-21.875 31.8671875 -21.875 31.8671875 -23.875 34.8671875 C-24.535 34.8671875 -25.195 34.8671875 -25.875 34.8671875 C-25.875 35.8571875 -25.875 36.8471875 -25.875 37.8671875 C-20.925 37.8671875 -15.975 37.8671875 -10.875 37.8671875 C-10.875 36.8771875 -10.875 35.8871875 -10.875 34.8671875 C-12.36 34.3721875 -12.36 34.3721875 -13.875 33.8671875 C-13.875 30.8971875 -13.875 27.9271875 -13.875 24.8671875 C-9.49597916 27.05669792 -8.62842856 28.42140398 -6.0625 32.4296875 C-3.51547072 36.2963094 -3.51547072 36.2963094 0.19921875 38.8125 C2.29919859 39.13737699 2.29919859 39.13737699 5.125 38.8671875 C1.44364537 42.95758154 -1.59807567 44.57805425 -7.07421875 45.2734375 C-15.50397133 45.499993 -21.48337491 44.63724171 -27.875 38.8671875 C-32.90697751 32.81646608 -35.31853771 27.52116882 -35.21484375 19.62890625 C-34.30543731 12.2386723 -30.3465122 6.57203784 -24.62109375 2.0234375 C-17.72400553 -2.54376186 -7.73843066 -3.04910991 0 0 Z " fill="#F7FBFB" transform="translate(1253.875,376.1328125)"/>
<path d="M0 0 C3.46122752 1.97201568 5.36349867 3.42324609 6.6875 7.3125 C7.28434421 11.74813762 7.74708382 16.18492296 5.703125 20.2890625 C2.85686789 23.85566864 -0.15821419 26.03877061 -4.6796875 26.61328125 C-9.95078456 26.63791254 -13.8759958 26.48143157 -18.3125 23.3125 C-21.61329948 19.75111109 -22.5875859 16.99531634 -22.75 12.25 C-22.5531117 8.14610955 -22.16302386 5.438881 -19.3125 2.3125 C-12.94555491 -2.30665624 -7.25290726 -3.25450967 0 0 Z " fill="#83C7D1" transform="translate(607.3125,421.6875)"/>
<path d="M0 0 C3.375 -0.1875 3.375 -0.1875 7 0 C9 3 9 3 8.75 5.5625 C8 8 8 8 6 10 C2.875 10.125 2.875 10.125 0 10 C0 6.7 0 3.4 0 0 Z " fill="#F4FAFA" transform="translate(1240,386)"/>
<path d="M0 0 C1.423125 1.36125 1.423125 1.36125 2.875 2.75 C8.58193686 7.64662128 15.54212621 10.21496065 23 11 C23 11.33 23 11.66 23 12 C9.55388843 12.92237046 9.55388843 12.92237046 3.52734375 8.4375 C1.45137055 6.48364287 0.07221129 4.64478785 -1 2 C-0.67 1.34 -0.34 0.68 0 0 Z " fill="#77C4D4" transform="translate(1223,411)"/>
<path d="M0 0 C0.66 0.33 1.32 0.66 2 1 C4.204364 1.22950319 6.41392173 1.41075933 8.625 1.5625 C9.81351563 1.64628906 11.00203125 1.73007812 12.2265625 1.81640625 C13.59941406 1.90728516 13.59941406 1.90728516 15 2 C15 2.33 15 2.66 15 3 C10.05 3 5.1 3 0 3 C-0.33 3.66 -0.66 4.32 -1 5 C-2.64363134 5.72159424 -4.31050386 6.39351421 -6 7 C-4.02 4.69 -2.04 2.38 0 0 Z " fill="#E9F5F7" transform="translate(1229,378)"/>
<path d="M0 0 C1.65 0 3.3 0 5 0 C3.95125002 2.62187494 3.35068687 3.79371361 0.875 5.25 C0.25625 5.4975 -0.3625 5.745 -1 6 C-1 5.01 -1 4.02 -1 3 C-3.31 3 -5.62 3 -8 3 C-8 2.67 -8 2.34 -8 2 C-5.36 2 -2.72 2 0 2 C0 1.34 0 0.68 0 0 Z " fill="#8ACFDC" transform="translate(1260,412)"/>
<path d="M0 0 C0.33 0 0.66 0 1 0 C1.19294408 4.82360189 0.75747614 8.49646738 -1 13 C-1.33 13 -1.66 13 -2 13 C-2.05416188 11.39620659 -2.09286638 9.79188594 -2.125 8.1875 C-2.14820313 7.29417969 -2.17140625 6.40085937 -2.1953125 5.48046875 C-2 3 -2 3 0 0 Z " fill="#61BDCD" transform="translate(1219,386)"/>
<path d="M0 0 C1.99954746 -0.04254356 4.00041636 -0.04080783 6 0 C7 1 7 1 7.09765625 3.06640625 C7.08605469 3.89011719 7.07445312 4.71382813 7.0625 5.5625 C7.05347656 6.38878906 7.04445313 7.21507812 7.03515625 8.06640625 C7.01775391 9.02353516 7.01775391 9.02353516 7 10 C6.67 10 6.34 10 6 10 C5.67 7.36 5.34 4.72 5 2 C3.35 2 1.7 2 0 2 C0 1.34 0 0.68 0 0 Z " fill="#9ED5DE" transform="translate(1206,504)"/>
<path d="M0 0 C0.6875 1.625 0.6875 1.625 1 4 C-0.4375 7.25 -0.4375 7.25 -2 10 C-3.1875 8.3125 -3.1875 8.3125 -4 6 C-2.87755007 3.70165014 -1.81522119 1.81522119 0 0 Z " fill="#71C5D2" transform="translate(1223,380)"/>
<path d="M0 0 C0.66 0 1.32 0 2 0 C3.42944945 2.35438733 4.08661261 3.48032433 3.625 6.25 C3.41875 6.8275 3.2125 7.405 3 8 C2.67 7.34 2.34 6.68 2 6 C1.01 6.495 1.01 6.495 0 7 C0 4.69 0 2.38 0 0 Z " fill="#81C8D5" transform="translate(1266,386)"/>
<path d="M0 0 C1.5 1.1875 1.5 1.1875 3 3 C3.1875 5.6875 3.1875 5.6875 3 8 C0.9375 6.25 0.9375 6.25 -1 4 C-0.75 1.75 -0.75 1.75 0 0 Z " fill="#70BDCB" transform="translate(1220,407)"/>
</svg>
